Coordinates
version=1
nRows=17
nColumns=40
inDegrees=yes

Units are S.I. units (second, meters, Newtons, ...)
Angles are in degrees.

endheader
time	pelvis_tilt	pelvis_list	pelvis_rotation	pelvis_tx	pelvis_ty	pelvis_tz	hip_flexion_r	hip_adduction_r	hip_rotation_r	knee_angle_r	knee_angle_r_beta	ankle_angle_r	subtalar_angle_r	mtp_angle_r	hip_flexion_l	hip_adduction_l	hip_rotation_l	knee_angle_l	knee_angle_l_beta	ankle_angle_l	subtalar_angle_l	mtp_angle_l	lumbar_extension	lumbar_bending	lumbar_rotation	arm_flex_r	arm_add_r	arm_rot_r	elbow_flex_r	pro_sup_r	wrist_flex_r	wrist_dev_r	arm_flex_l	arm_add_l	arm_rot_l	elbow_flex_l	pro_sup_l	wrist_flex_l	wrist_dev_l
      0.00000000	     -1.50097337	      3.19391620	     -4.32054470	     -1.50770623	      0.89963905	     -1.63016164	      2.86057808	     -4.47612356	     -3.86008334	    -47.88446365	     -0.83574155	    -20.58368042	     -2.71513768	      0.65371865	     12.35603345	     -4.29371424	     11.08110028	    -13.80287804	     -0.24090567	      2.20836406	     -2.91592442	     -1.91578567	     -5.51881708	     -1.61218014	      1.62584940	     10.15366873	     -6.94036714	     21.30197224	     17.70131725	     89.95437384	      0.00000000	      0.00000000	      2.47188855	      9.48415929	    -13.30014298	     15.32188648	     89.95437384	      0.00000000	      0.00000000
      0.01000000	     -1.18242440	      3.43218312	     -4.67973650	     -1.49938784	      0.90009502	     -1.63121242	      4.00233052	     -4.82757477	     -3.22612398	    -50.22608341	     -0.87661053	    -21.10263431	     -3.95911449	      0.89485774	     11.25763165	     -4.59373574	     11.94507747	    -13.47867976	     -0.23524734	      2.31355627	     -4.11337476	     -2.14245179	     -5.88691034	     -1.88328038	      1.62214901	      9.76226637	     -7.08376518	     21.73303849	     17.15964281	     89.95437384	      0.00000000	      0.00000000	      3.20152453	      9.69528035	    -13.24558446	     15.70111605	     89.95437384	      0.00000000	      0.00000000
      0.02000000	     -0.88059787	      3.59200300	     -4.85921400	     -1.49065124	      0.90035015	     -1.63216291	      5.04179792	     -5.05439750	     -2.86130828	    -52.45456189	     -0.91550481	    -20.32042253	     -5.42490396	      1.01782014	     10.20514766	     -4.84027216	     12.44701525	    -13.30300871	     -0.23218130	      2.75660002	     -5.02912329	     -2.35591964	     -6.16870997	     -2.08536122	      1.36759452	      9.33746785	     -7.13390898	     21.97782428	     16.63749929	     89.95437384	      0.00000000	      0.00000000	      3.87443677	      9.93014730	    -13.06505728	     15.99194824	     89.95437384	      0.00000000	      0.00000000
      0.03000000	     -0.55491122	      3.70444367	     -5.14348747	     -1.48228948	      0.90065522	     -1.63313818	      6.16059224	     -5.25523670	     -2.57909407	    -54.58804909	     -0.95274119	    -19.02501781	     -7.17710176	      1.14045951	      9.17145688	     -5.07059655	     12.93939107	    -13.15473173	     -0.22959338	      3.08704023	     -5.74460313	     -2.51495579	     -6.55305134	     -2.19193913	      1.31256271	      9.00406871	     -7.27607842	     22.24465447	     16.02109216	     89.95437384	      0.00000000	      0.00000000	      4.63274594	     10.06921037	    -12.83042085	     16.35151828	     89.95437384	      0.00000000	      0.00000000
      0.04000000	     -0.27493263	      3.72605458	     -5.43106056	     -1.47403072	      0.90084015	     -1.63381465	      7.35059917	     -5.30302061	     -2.38234532	    -56.59825163	     -0.98782584	    -17.31760080	     -9.28513634	      1.37442126	      8.19244649	     -5.23083974	     13.37086149	    -12.90847622	     -0.22529541	      3.22992383	     -6.17387364	     -2.71940137	     -6.89330623	     -2.23065890	      1.20819289	      8.65364613	     -7.39993083	     22.45763886	     15.54069247	     89.95437384	      0.00000000	      0.00000000	      5.34838771	     10.25057133	    -12.54953500	     16.78945866	     89.95437384	      0.00000000	      0.00000000
      0.05000000	      0.11255154	      3.74574623	     -5.59346405	     -1.46570382	      0.90130579	     -1.63459478	      8.34025648	     -5.34339338	     -2.28083726	    -58.27703470	     -1.01712613	    -15.94036531	    -10.84576544	      1.61820208	      7.14580263	     -5.37847869	     13.54251053	    -12.95737979	     -0.22614894	      3.79351352	     -6.62603930	     -2.87562386	     -7.36208313	     -2.25809393	      0.95874603	      8.39002906	     -7.50116228	     22.60084055	     14.97368636	     89.95437384	      0.00000000	      0.00000000	      6.15118073	     10.42116791	    -12.34194657	     17.03794996	     89.95437384	      0.00000000	      0.00000000
      0.06000000	      0.31479874	      3.58400957	     -5.65537368	     -1.45772629	      0.90161672	     -1.63536407	      9.49065993	     -5.19139356	     -2.39210863	    -59.67647921	     -1.04155105	    -14.66893896	    -12.07953831	      1.83073432	      6.34746040	     -5.34741483	     13.61690979	    -12.97042493	     -0.22637662	      4.17301356	     -6.93386974	     -2.97781809	     -7.67368331	     -2.05830219	      0.66276073	      8.14087616	     -7.61387908	     22.63400649	     14.36370504	     89.95437384	      0.00000000	      0.00000000	      6.97782588	     10.56578778	    -12.17170295	     17.31548974	     89.95437384	      0.00000000	      0.00000000
      0.07000000	      0.68131572	      3.35745887	     -5.76773773	     -1.44920662	      0.90214851	     -1.63605309	     10.37518141	     -4.84713901	     -2.24210236	    -60.77366233	     -1.06070051	    -13.46193996	    -13.05663706	      2.05925298	      5.32154805	     -5.30710461	     13.40094620	    -12.98809941	     -0.22668510	      4.71230309	     -6.94221522	     -3.04516244	     -8.07542007	     -1.78065003	      0.39502405	      7.82066440	     -7.78411637	     22.77427203	     13.88104649	     89.95437384	      0.00000000	      0.00000000	      7.68543077	     10.71205661	    -12.03138972	     17.67693604	     89.95437384	      0.00000000	      0.00000000
      0.08000000	      0.84332996	      3.10199253	     -5.74267465	     -1.44073100	      0.90248424	     -1.63663950	     11.48190123	     -4.47950952	     -2.38845648	    -61.83278647	     -1.07918571	    -11.14616362	    -13.10997041	     11.03482742	      4.46193282	     -5.29306007	     12.66909339	    -12.91679632	     -0.22544062	      5.51289796	     -5.79959719	     -2.84996846	     -8.26557084	     -1.44966910	      0.07074503	      7.39189966	     -7.99752686	     22.91357205	     13.62705226	     89.95437384	      0.00000000	      0.00000000	      8.40237731	     10.86827850	    -11.90009383	     18.02937317	     89.95437384	      0.00000000	      0.00000000
      0.09000000	      1.03327608	      2.80737997	     -5.82797213	     -1.43256529	      0.90293217	     -1.63723902	     12.50811178	     -4.00017044	     -2.29696335	    -62.42833589	     -1.08958001	     -9.85739643	    -13.48451972	     10.81540159	      3.61106542	     -5.13555664	     12.49897939	    -12.89142797	     -0.22499786	      6.01629448	     -5.89219686	     -2.89504970	     -8.48791148	     -1.07098075	     -0.19829694	      7.07729464	     -8.21019602	     22.96755496	     13.29072248	     89.95437384	      0.00000000	      0.00000000	      9.10941088	     11.01290249	    -11.86230824	     18.38192701	     89.95437384	      0.00000000	      0.00000000
      0.10000000	      1.16615611	      2.51933426	     -5.85717203	     -1.42440420	      0.90337856	     -1.63802057	     13.58083517	     -3.58311524	     -2.36292194	    -62.79703777	     -1.09601507	     -8.98657576	    -13.55984600	     10.60389265	      2.83932582	     -4.97363236	     12.42417676	    -12.87103095	     -0.22464187	      6.35681622	     -5.87839474	     -2.90862154	     -8.62449792	     -0.67434228	     -0.50050515	      6.73085936	     -8.47608029	     22.95705317	     13.00899082	     89.95437384	      0.00000000	      0.00000000	      9.81161783	     11.12097960	    -11.80765165	     18.71178930	     89.95437384	      0.00000000	      0.00000000
      0.11000000	      1.27697293	      2.12907878	     -5.92502525	     -1.41613282	      0.90382467	     -1.63838118	     14.52268795	     -2.80812756	     -2.12982459	    -62.82820248	     -1.09655900	     -7.40882991	    -13.68933309	     10.32711505	      2.01559403	     -4.69098389	     12.19400958	    -12.76185931	     -0.22273646	      6.85623772	     -5.89307464	     -2.92068713	     -8.72615660	     -0.18947668	     -0.74488916	      6.33797893	     -8.73939010	     22.92011663	     12.86529714	     89.95437384	      0.00000000	      0.00000000	     10.47472960	     11.26381207	    -11.75472364	     19.06362268	     89.95437384	      0.00000000	      0.00000000
      0.12000000	      1.32600355	      1.85190896	     -5.81348946	     -1.40810174	      0.90411010	     -1.63931598	     15.62734179	     -2.41860953	     -2.34519668	    -62.77998839	     -1.09571750	     -6.65242789	    -13.64097510	     10.12849732	      1.33964542	     -4.52244474	     12.26210621	    -12.65216993	     -0.22082202	      7.25024311	     -5.84011636	     -2.92947400	     -8.75872285	      0.22544547	     -1.15647844	      5.96593615	     -9.03579530	     22.86228865	     12.71868632	     89.95437384	      0.00000000	      0.00000000	     11.13368233	     11.38247778	    -11.70302336	     19.44132333	     89.95437384	      0.00000000	      0.00000000
      0.13000000	      1.37733050	      1.40099072	     -5.81632350	     -1.40009346	      0.90451325	     -1.63964862	     16.52821964	     -1.56811976	     -2.23949287	    -62.29650749	     -1.08727917	     -4.99191635	    -13.55794015	      9.79415686	      0.62229509	     -4.15539026	     11.88379053	    -12.60326307	     -0.21996844	      7.72213456	     -5.87215144	     -2.93999131	     -8.82705399	      0.77018708	     -1.40029788	      5.55629436	     -9.34866707	     22.67553351	     12.70990762	     89.95437384	      0.00000000	      0.00000000	     11.74417144	     11.52566846	    -11.57178446	     19.97342032	     89.95437384	      0.00000000	      0.00000000
      0.14000000	      1.45648097	      1.09682362	     -5.81933531	     -1.39211010	      0.90493644	     -1.64010964	     17.45359512	     -0.99445424	     -2.24632960	    -61.69913299	     -1.07685302	     -3.94546142	    -13.37032956	      9.53992089	     -0.13638291	     -3.92179028	     11.59819908	    -12.58518919	     -0.21965299	      7.85322113	     -5.93043096	     -2.90849800	     -8.91492306	      1.17303104	     -1.70005365	      5.19837317	     -9.61600846	     22.44805721	     12.67086686	     89.95437384	      0.00000000	      0.00000000	     12.36723190	     11.65784191	    -11.43619882	     20.40238163	     89.95437384	      0.00000000	      0.00000000
      0.15000000	      1.35321882	      1.03397509	     -5.80805301	     -1.38410828	      0.90489670	     -1.64085429	     18.60286115	     -0.82701582	     -2.47928724	    -60.92384510	     -1.06332169	     -3.37757625	    -13.18262674	      9.36505283	     -0.64072411	     -3.95401399	     11.69480389	    -12.50950829	     -0.21833211	      8.03265717	     -5.87001670	     -2.89168160	     -8.72998554	      1.35042728	     -2.00039468	      4.78841079	     -9.90822467	     22.29649507	     12.62009569	     89.95437384	      0.00000000	      0.00000000	     12.92163139	     11.77926229	    -11.33686710	     20.85626106	     89.95437384	      0.00000000	      0.00000000
      0.16000000	      1.47705770	      0.70650219	     -5.74571871	     -1.37617457	      0.90519998	     -1.64123365	     19.30471916	     -0.23361891	     -2.62124335	    -59.79700153	     -1.04365456	     -2.16511708	    -13.02688321	      9.09955666	     -1.53081382	     -3.71685287	     11.47791041	    -12.22954952	     -0.21344591	      8.29148002	     -6.00317658	     -2.85835779	     -8.88966944	      1.76682223	     -2.32373395	      4.43007809	    -10.15949156	     21.70681439	     12.68831270	     89.95437384	      0.00000000	      0.00000000	     13.45113769	     11.93001083	    -11.07244040	     21.50616005	     89.95437384	      0.00000000	      0.00000000
